<?xml version="1.0" encoding="UTF-8"?>
<svg id="Capa_1" data-name="Capa 1" xmlns="http://www.w3.org/2000/svg" viewBox="0 0 139.88 203.83">
  <defs>
    <style>
      .cls-1 {
        fill: #063;
      }

      .cls-2 {
        fill: #008e45;
      }

      .cls-3 {
        fill: #bebebf;
      }

      .cls-4 {
        fill: #aaa;
      }

      .cls-5 {
        fill: #929495;
      }

      .cls-6 {
        fill: #ecc316;
      }

      .cls-7 {
        fill: #fff;
      }

      .cls-8 {
        fill: none;
        stroke: #1d1d1b;
        stroke-miterlimit: 10;
        stroke-width: 5px;
      }

      .cls-9 {
        fill: #4f504f;
      }

      .cls-10 {
        fill: #005022;
      }

      .cls-11 {
        fill: #007033;
      }

      .cls-12 {
        fill: #76797a;
      }

      .cls-13 {
        fill: #dbdcdd;
      }
    </style>
  </defs>
  <circle class="cls-7" cx="57.1" cy="146.65" r="4.01"/>
  <polygon class="cls-11" points="109.35 1.15 124.65 0 87.68 73.85 70.47 72.7 109.35 1.15"/>
  <polygon class="cls-2" points="139.88 11.3 103.18 86.17 87.68 73.85 124.65 0 139.88 11.3"/>
  <polygon class="cls-1" points="137.58 24.12 102.86 94.55 103.18 86.17 139.88 11.3 137.58 24.12"/>
  <polygon class="cls-10" points="70.47 72.7 71.34 81.16 86.5 91.54 102.86 94.55 103.18 86.17 87.68 73.85 70.47 72.7"/>
  <path class="cls-3" d="M84.77,86.32c-.12.42.23.56.57.64-.04.11-.18.22-.24.32-1.49,1.53-2.76,3.45-3.82,5.29-6.28,10.86-12.33,23.26-17.3,34.76-2.35,5.43-4.51,12.56-7.22,17.58-.26.49-.86,1.79-1.51,1.39l-.12.2c.34.54.73.96,1.31,1.24.06.16.03.22,0,.24,0,0-.17.09-1.35-.96h0s-.06-.03-.1-.07c-.24-.22,0-.68.05-.77.24-.49,12.23-26.12,28.75-61.45.41.27.61,1.39.98,1.59Z"/>
  <path class="cls-9" d="M57.74,148.45c0-.31.21-.21.41-.24.27-.04.55.15.73-.04,7.04-14.4,13.15-29.21,20.22-43.59,3.09-5.79,6.06-11.71,8.81-17.62-.23,0-.37.09-.61.08-.24,0-.61.01-.82,0-.22-.01-1.01-.05-1.14-.08-.34-.07-.69-.22-.57-.64.38.2,2.95.55,3.39.48.33-.05,1.21-.73,1.59-.87l-30.14,62.32c-.63.07-1.25.13-1.88.2Z"/>
  <path class="cls-4" d="M89.75,85.93c-.39.14-1.26.82-1.59.87-.44.07-3.01-.28-3.39-.48s-.58-1.33-.98-1.59c-.05-.64,6.06.9,5.96,1.2Z"/>
  <path class="cls-7" d="M53.51,154.41s0-.05,0-.08h.08s0,.09-.08.08Z"/>
  <path class="cls-13" d="M85.1,87.27c-.93,1.47-1.89,3.54-2.68,5.13-7.47,15.06-14.28,30.44-21.03,45.82l-4.88,9.51s-.06.01-.08,0c-.58-.27-.97-.69-1.31-1.24l.12-.2c.65.39,1.24-.9,1.51-1.39,2.71-5.02,4.87-12.15,7.22-17.58,4.98-11.5,11.02-23.9,17.3-34.76,1.07-1.84,2.33-3.76,3.82-5.29Z"/>
  <path class="cls-5" d="M86.49,87.04c-4.12,8.62-8.58,17.1-12.67,25.73-5.56,11.71-10.59,23.67-16.36,35.28-.07.03-.8-.26-.94-.32l4.88-9.51c6.75-15.38,13.56-30.76,21.03-45.82.79-1.59,1.75-3.66,2.68-5.13.06-.1.2-.21.24-.32.13.03.92.07,1.14.08Z"/>
  <path class="cls-12" d="M87.3,87.04l-29.16,61.17c-.19.03-.42-.07-.41.24-.13-.11-.54-.07-.57-.08-.1-.04-.52-.39-.74-.4,0-.08,0-.16,0-.24.02.01.06,0,.08,0,.14.06.87.35.94.32,5.77-11.61,10.81-23.57,16.36-35.28,4.1-8.63,8.56-17.11,12.67-25.73.21.01.57,0,.82,0Z"/>
  <path class="cls-9" d="M58.15,148.21l29.16-61.17c.24,0,.38-.09.61-.08-2.75,5.91-5.72,11.83-8.81,17.62-7.08,14.38-13.19,29.19-20.22,43.59-.19.19-.47,0-.73.04Z"/>
  <circle class="cls-6" cx="57.96" cy="145.88" r="45.22"/>
  <circle class="cls-8" cx="58.15" cy="145.69" r="55.65"/>
  <circle class="cls-7" cx="57.96" cy="145.88" r="4.01"/>
  <path class="cls-3" d="M85.63,85.54c-.12.42.23.56.57.64-.04.11-.18.22-.24.32-1.49,1.53-2.76,3.45-3.82,5.29-6.28,10.86-12.33,23.26-17.3,34.76-2.35,5.43-4.51,12.56-7.22,17.58-.26.49-.86,1.79-1.51,1.39l-.12.2c.34.54.73.96,1.31,1.24.06.16.03.22,0,.24,0,0-.17.09-1.35-.96h0s-.06-.03-.1-.07c-.24-.22,0-.68.05-.77.24-.49,12.23-26.12,28.75-61.45.41.27.61,1.39.98,1.59Z"/>
  <path class="cls-9" d="M58.6,147.67c0-.31.21-.21.41-.24.27-.04.55.15.73-.04,7.04-14.4,13.15-29.21,20.22-43.59,3.09-5.79,6.06-11.71,8.81-17.62-.23,0-.37.09-.61.08-.24,0-.61.01-.82,0-.22-.01-1.01-.05-1.14-.08-.34-.07-.69-.22-.57-.64.38.2,2.95.55,3.39.48.33-.05,1.21-.73,1.59-.87l-30.14,62.32c-.63.07-1.25.13-1.88.2Z"/>
  <path class="cls-7" d="M54.37,153.63s0-.05,0-.08h.08s0,.09-.08.08Z"/>
  <path class="cls-13" d="M85.96,86.5c-.93,1.47-1.89,3.54-2.68,5.13-7.47,15.06-14.28,30.44-21.03,45.82l-4.88,9.51s-.06.01-.08,0c-.58-.27-.97-.69-1.31-1.24l.12-.2c.65.39,1.24-.9,1.51-1.39,2.71-5.02,4.87-12.15,7.22-17.58,4.98-11.5,11.02-23.9,17.3-34.76,1.07-1.84,2.33-3.76,3.82-5.29Z"/>
  <path class="cls-5" d="M87.35,86.26c-4.12,8.62-8.58,17.1-12.67,25.73-5.56,11.71-10.59,23.67-16.36,35.28-.07.03-.8-.26-.94-.32l4.88-9.51c6.75-15.38,13.56-30.76,21.03-45.82.79-1.59,1.75-3.66,2.68-5.13.06-.1.2-.21.24-.32.13.03.92.07,1.14.08Z"/>
  <path class="cls-12" d="M88.17,86.26l-29.16,61.17c-.19.03-.42-.07-.41.24-.13-.11-.54-.07-.57-.08-.1-.04-.52-.39-.74-.4,0-.08,0-.16,0-.24.02.01.06,0,.08,0,.14.06.87.35.94.32,5.77-11.61,10.81-23.57,16.36-35.28,4.1-8.63,8.56-17.11,12.67-25.73.21.01.57,0,.82,0Z"/>
  <path class="cls-9" d="M59.01,147.43l29.16-61.17c.24,0,.38-.09.61-.08-2.75,5.91-5.72,11.83-8.81,17.62-7.08,14.38-13.19,29.19-20.22,43.59-.19.19-.47,0-.73.04Z"/>
</svg>