<?xml version="1.0" encoding="UTF-8"?>
<svg id="Capa_1" data-name="Capa 1" xmlns="http://www.w3.org/2000/svg" viewBox="0 0 647.74 184.88">
  <defs>
    <style>
      .cls-1 {
        stroke: #fff;
        stroke-linecap: round;
        stroke-linejoin: round;
        stroke-width: 8px;
      }

      .cls-1, .cls-2 {
        fill: #fff;
      }

      .cls-3 {
        fill: #ecc316;
      }

      .cls-4 {
        fill: #36a936;
      }

      .cls-5 {
        fill: #364a9a;
      }

      .cls-6 {
        fill: #e62c2b;
      }

      .cls-7 {
        fill: #343434;
      }
    </style>
  </defs>
  <path class="cls-6" d="M44.19,86.78v-33.52c7.68,0,11.52-2.93,11.52-8.8,0-5.37-2.93-8.05-8.8-8.05s-8.89,3.68-8.89,11.05v83.51H0V51.4c0-8.24.83-14.99,2.48-20.27,1.65-5.27,4.48-10.19,8.47-14.74,4.49-5.06,10.11-9.05,16.85-11.98C34.55,1.47,41.5,0,48.68,0c12.98,0,23.89,4.37,32.72,13.11,8.83,8.74,13.25,19.57,13.25,32.49s-3.96,22.72-11.89,30.52c-7.24,7.18-18.16,10.77-32.77,10.77l-5.8-.09Z"/>
  <path class="cls-5" d="M170.95,0c18.1,0,33.62,6.59,46.57,19.75,12.95,13.17,19.43,28.93,19.43,47.28s-6.52,34.51-19.57,47.56c-13.05,13.04-28.9,19.57-47.56,19.57s-34.36-6.55-47.46-19.66-19.66-28.93-19.66-47.46,6.6-34.58,19.8-47.56C135.7,6.49,151.85,0,170.95,0ZM169.82,37.63c-7.8,0-14.45,2.87-19.94,8.61-5.49,5.74-8.24,12.67-8.24,20.78s2.76,15.04,8.29,20.78c5.52,5.74,12.15,8.61,19.89,8.61s14.53-2.86,19.99-8.57c5.46-5.71,8.19-12.65,8.19-20.83s-2.73-15.12-8.19-20.83c-5.46-5.71-12.12-8.57-19.99-8.57Z"/>
  <path class="cls-3" d="M252.21,3.18h38.12v78.8c0,6.15.95,10.25,2.86,12.29,1.91,2.04,5.68,3.06,11.31,3.06h1.97v38.47h-10.14c-13.9,0-24.72-4.19-32.49-12.58-7.76-8.39-11.64-20.03-11.64-34.93V3.18Z"/>
  <path class="cls-4" d="M357.15,3.18v130.97h-38.01V3.18h38.01ZM430.08,3.18l-33.7,60.14,33.52,72.48h-42.69l-28.93-73.26L391.04,3.18h39.04Z"/>
  <path class="cls-7" d="M532.59,3.18v82.85c0,14.6-4.35,26.28-13.06,35.01-8.71,8.74-20.3,13.11-34.78,13.11s-25.45-4.24-33.09-12.73c-7.65-8.49-11.47-20.69-11.47-36.6V3.18h38.01v81.54c0,7.8,2.78,11.7,8.33,11.7s8.05-3.9,8.05-11.7V3.18h38.01Z"/>
  <path class="cls-7" d="M597.28,86.78v-33.52c7.68,0,11.52-2.93,11.52-8.8,0-5.37-2.93-8.05-8.8-8.05s-8.89,3.68-8.89,11.05v83.51h-38.01V51.4c0-8.24.83-14.99,2.48-20.27,1.65-5.27,4.48-10.19,8.47-14.74,4.49-5.06,10.11-9.05,16.85-11.98,6.74-2.93,13.7-4.4,20.88-4.4,12.98,0,23.89,4.37,32.72,13.11,8.83,8.74,13.25,19.57,13.25,32.49s-3.96,22.72-11.89,30.52c-7.24,7.18-18.16,10.77-32.77,10.77l-5.8-.09Z"/>
  <rect class="cls-2" x="136.21" y="115.09" width="67.23" height="6.18" transform="translate(288 -51.64) rotate(90)"/>
  <rect class="cls-1" x="149.26" y="37.17" width="41.12" height="59.72" rx="16.34" ry="16.34" transform="translate(339.65 134.06) rotate(180)"/>
  <rect class="cls-5" x="193.88" y="40.91" width="16.15" height="52.24"/>
  <rect class="cls-5" x="207.35" y="75.35" width=".49" height="0"/>
  <rect class="cls-5" x="129.61" y="40.96" width="16.15" height="52.24"/>
  <rect class="cls-5" x="172.91" y="108.04" width="16.15" height="22.94"/>
  <ellipse class="cls-5" cx="169.82" cy="150.69" rx="32.6" ry="6.24"/>
  <g>
    <path class="cls-7" d="M316.95,170.12v4.57h-1.49v4.13h-5.15v-11.02c0-2.13.58-3.79,1.75-4.97,1.16-1.18,2.8-1.77,4.91-1.77s3.53.54,4.51,1.61c.97,1.07,1.46,2.72,1.46,4.96v11.2h-5.15v-10.85c0-.68-.08-1.15-.24-1.41-.16-.26-.45-.39-.86-.39-.8,0-1.21.6-1.21,1.8v2.16h1.49Z"/>
    <path class="cls-7" d="M336.99,178.82h-4.75v-7.15c0-.73-.3-1.09-.9-1.09s-.89.36-.89,1.09v7.15h-4.75v-7.06c0-1.65.55-3.04,1.64-4.17s2.43-1.69,4.01-1.69c1.81,0,3.26.66,4.35,1.97.85,1.02,1.28,2.45,1.28,4.28v6.68Z"/>
    <path class="cls-7" d="M347.52,172.99l4.71-.18c-.14,1.83-.82,3.33-2.04,4.51-1.23,1.18-2.72,1.76-4.48,1.76-1.86,0-3.43-.65-4.72-1.94-1.28-1.29-1.92-2.88-1.92-4.76s.65-3.31,1.94-4.58,2.85-1.9,4.66-1.9c1.58,0,2.98.5,4.19,1.5,1.21,1,1.96,2.27,2.26,3.82l-4.81.18c-.42-.54-.94-.81-1.57-.81-.54,0-.99.18-1.33.53s-.52.8-.52,1.35.18,1.01.55,1.38c.37.37.83.56,1.38.56.8,0,1.38-.47,1.71-1.41Z"/>
    <path class="cls-7" d="M359.05,161.49v17.33h-4.75v-17.33h4.75Z"/>
    <path class="cls-7" d="M368.86,174.07v4.91c-.39.07-.75.1-1.07.1-1.9,0-3.49-.63-4.76-1.88-1.27-1.25-1.9-2.82-1.9-4.71s.64-3.39,1.92-4.67c1.28-1.28,2.84-1.92,4.68-1.92,2.05,0,3.66.6,4.84,1.8,1.18,1.2,1.77,2.83,1.77,4.91v6.21h-4.75v-5.87c0-.67-.16-1.2-.49-1.6-.33-.4-.76-.6-1.31-.6-.5,0-.93.18-1.29.55-.36.36-.55.79-.55,1.29,0,.52.17.96.5,1.29.33.34.75.51,1.26.51.42,0,.8-.11,1.16-.33Z"/>
    <path class="cls-7" d="M385.25,184.37v-4.13c.64.27,1.21.41,1.69.41,1.54,0,2.54-.87,3-2.6-.83.49-1.64.74-2.44.74-1.18,0-2.15-.44-2.91-1.31s-1.14-1.99-1.14-3.34v-7.96h4.75v6.8c0,.75.31,1.13.94,1.13s.9-.42.9-1.24v-6.69h4.75v11.3c0,2.11-.59,3.81-1.78,5.1-1.41,1.54-3.12,2.31-5.13,2.31-.88,0-1.76-.17-2.63-.51Z"/>
    <path class="cls-7" d="M410.7,170.12v4.57h-1.49v4.13h-5.15v-11.02c0-2.13.58-3.79,1.75-4.97,1.16-1.18,2.8-1.77,4.91-1.77s3.53.54,4.51,1.61c.97,1.07,1.46,2.72,1.46,4.96v11.2h-5.15v-10.85c0-.68-.08-1.15-.24-1.41-.16-.26-.45-.39-.86-.39-.8,0-1.21.6-1.21,1.8v2.16h1.49Z"/>
    <path class="cls-7" d="M427.38,166.34v5c-.67,0-1.13.12-1.38.37s-.41.74-.48,1.48c-.22,2.45-1.17,4.17-2.84,5.18-.89.52-2.15.79-3.78.79h-.66v-5.03h.22c.76,0,1.31-.16,1.63-.48.33-.32.51-.87.56-1.67.07-1.29.19-2.21.36-2.73.17-.53.53-1.05,1.06-1.56.93-.91,2.22-1.36,3.87-1.36h1.43Z"/>
    <path class="cls-7" d="M436.7,172.99l4.71-.18c-.14,1.83-.82,3.33-2.04,4.51-1.23,1.18-2.72,1.76-4.48,1.76-1.86,0-3.43-.65-4.72-1.94-1.28-1.29-1.92-2.88-1.92-4.76s.65-3.31,1.94-4.58,2.85-1.9,4.66-1.9c1.58,0,2.98.5,4.19,1.5,1.21,1,1.96,2.27,2.26,3.82l-4.81.18c-.42-.54-.94-.81-1.57-.81-.54,0-.99.18-1.33.53s-.52.8-.52,1.35.18,1.01.55,1.38c.37.37.83.56,1.38.56.8,0,1.38-.47,1.71-1.41Z"/>
    <path class="cls-7" d="M448.22,166.16v12.66h-4.75v-12.66h4.75ZM445.86,160.51c.64,0,1.2.23,1.67.68.47.45.71.99.71,1.61,0,.66-.22,1.2-.67,1.62-.45.42-1.01.63-1.71.63s-1.26-.21-1.71-.63c-.44-.42-.67-.96-.67-1.62,0-.62.23-1.15.71-1.61.47-.45,1.03-.68,1.67-.68Z"/>
    <path class="cls-7" d="M463.46,173.26h-7.2c-.11-.36-.17-.7-.17-1,0-.42.08-.84.23-1.24h2.41c-.17-.94-.7-1.41-1.59-1.41-.59,0-1.08.25-1.45.75-.37.5-.56,1.15-.56,1.94s.18,1.49.54,1.99c.36.51.83.76,1.42.76.47,0,.93-.24,1.37-.71l2.7,3.25c-1.26.99-2.66,1.49-4.2,1.49-1.88,0-3.46-.63-4.74-1.89-1.28-1.26-1.92-2.82-1.92-4.68s.65-3.42,1.94-4.7c1.29-1.28,2.88-1.92,4.75-1.92s3.38.62,4.63,1.87c1.25,1.25,1.87,2.79,1.87,4.62,0,.19-.02.48-.05.89Z"/>
    <path class="cls-7" d="M476.71,178.82h-4.75v-7.15c0-.73-.3-1.09-.9-1.09s-.89.36-.89,1.09v7.15h-4.75v-7.06c0-1.65.55-3.04,1.64-4.17s2.43-1.69,4.01-1.69c1.81,0,3.26.66,4.35,1.97.85,1.02,1.28,2.45,1.28,4.28v6.68Z"/>
    <path class="cls-7" d="M487.27,161.49h4.75v10.55c0,1.94-.51,3.52-1.52,4.74-.58.7-1.33,1.26-2.23,1.68-.9.41-1.83.62-2.77.62-1.89,0-3.48-.63-4.77-1.9s-1.94-2.83-1.94-4.67.64-3.33,1.93-4.63c1.29-1.3,2.81-1.96,4.57-1.96.28,0,.7.03,1.27.08v5.23c-.39-.3-.78-.46-1.17-.46-.49,0-.91.18-1.26.54-.35.36-.53.79-.53,1.3s.18.91.55,1.26c.36.35.8.53,1.31.53,1.22,0,1.83-.84,1.83-2.53v-10.37Z"/>
    <path class="cls-7" d="M506.96,173.26h-7.2c-.11-.36-.17-.7-.17-1,0-.42.08-.84.23-1.24h2.41c-.17-.94-.7-1.41-1.59-1.41-.59,0-1.08.25-1.45.75-.37.5-.56,1.15-.56,1.94s.18,1.49.54,1.99c.36.51.83.76,1.42.76.47,0,.93-.24,1.37-.71l2.7,3.25c-1.26.99-2.66,1.49-4.2,1.49-1.88,0-3.46-.63-4.74-1.89-1.28-1.26-1.92-2.82-1.92-4.68s.65-3.42,1.94-4.7c1.29-1.28,2.88-1.92,4.75-1.92s3.38.62,4.63,1.87c1.25,1.25,1.87,2.79,1.87,4.62,0,.19-.02.48-.05.89Z"/>
    <path class="cls-7" d="M522.47,174.07v4.91c-.39.07-.75.1-1.07.1-1.9,0-3.49-.63-4.76-1.88-1.27-1.25-1.9-2.82-1.9-4.71s.64-3.39,1.92-4.67c1.28-1.28,2.84-1.92,4.68-1.92,2.05,0,3.66.6,4.84,1.8,1.18,1.2,1.77,2.83,1.77,4.91v6.21h-4.75v-5.87c0-.67-.16-1.2-.49-1.6-.33-.4-.76-.6-1.31-.6-.5,0-.93.18-1.29.55-.36.36-.55.79-.55,1.29,0,.52.17.96.5,1.29.33.34.75.51,1.26.51.42,0,.8-.11,1.16-.33Z"/>
    <path class="cls-7" d="M541.97,161.49v17.33h-4.75v-17.33h4.75Z"/>
    <path class="cls-7" d="M551.78,174.07v4.91c-.39.07-.75.1-1.07.1-1.9,0-3.49-.63-4.76-1.88-1.27-1.25-1.9-2.82-1.9-4.71s.64-3.39,1.92-4.67c1.28-1.28,2.84-1.92,4.68-1.92,2.05,0,3.66.6,4.84,1.8,1.18,1.2,1.77,2.83,1.77,4.91v6.21h-4.75v-5.87c0-.67-.16-1.2-.49-1.6-.33-.4-.76-.6-1.31-.6-.5,0-.93.18-1.29.55-.36.36-.55.79-.55,1.29,0,.52.17.96.5,1.29.33.34.75.51,1.26.51.42,0,.8-.11,1.16-.33Z"/>
    <path class="cls-7" d="M574.3,172.99l4.71-.18c-.14,1.83-.82,3.33-2.04,4.51-1.23,1.18-2.72,1.76-4.48,1.76-1.86,0-3.43-.65-4.72-1.94-1.28-1.29-1.92-2.88-1.92-4.76s.65-3.31,1.94-4.58,2.85-1.9,4.66-1.9c1.58,0,2.98.5,4.19,1.5,1.21,1,1.96,2.27,2.26,3.82l-4.81.18c-.42-.54-.94-.81-1.57-.81-.54,0-.99.18-1.33.53s-.52.8-.52,1.35.18,1.01.55,1.38c.37.37.83.56,1.38.56.8,0,1.38-.47,1.71-1.41Z"/>
    <path class="cls-7" d="M585.83,166.16v12.66h-4.75v-12.66h4.75ZM583.47,160.51c.64,0,1.2.23,1.67.68.47.45.71.99.71,1.61,0,.66-.22,1.2-.67,1.62-.45.42-1.01.63-1.71.63s-1.26-.21-1.71-.63c-.44-.42-.67-.96-.67-1.62,0-.62.23-1.15.71-1.61.47-.45,1.03-.68,1.67-.68Z"/>
    <path class="cls-7" d="M605.99,178.82h-4.75v-6.83c0-.53-.05-.89-.17-1.09s-.31-.3-.6-.3c-.53,0-.8.47-.8,1.41v6.82h-4.75v-6.83c0-.53-.06-.89-.17-1.09-.11-.2-.31-.3-.6-.3-.52,0-.79.47-.79,1.41v6.82h-4.75v-7.79c0-1.42.48-2.63,1.43-3.62.96-.99,2.12-1.49,3.48-1.49s2.67.59,3.78,1.78c1.24-1.19,2.49-1.78,3.73-1.78,1.58,0,2.85.58,3.81,1.73.75.9,1.13,2.2,1.13,3.92v7.26Z"/>
    <path class="cls-7" d="M615.8,174.07v4.91c-.39.07-.75.1-1.07.1-1.9,0-3.49-.63-4.76-1.88-1.27-1.25-1.9-2.82-1.9-4.71s.64-3.39,1.92-4.67c1.28-1.28,2.84-1.92,4.68-1.92,2.05,0,3.66.6,4.84,1.8,1.18,1.2,1.77,2.83,1.77,4.91v6.21h-4.75v-5.87c0-.67-.16-1.2-.49-1.6-.33-.4-.76-.6-1.31-.6-.5,0-.93.18-1.29.55-.36.36-.55.79-.55,1.29,0,.52.17.96.5,1.29.33.34.75.51,1.26.51.42,0,.8-.11,1.16-.33Z"/>
  </g>
</svg>