<?xml version="1.0" encoding="UTF-8"?>
<svg id="Capa_1" data-name="Capa 1" xmlns="http://www.w3.org/2000/svg" viewBox="0 0 647.74 197.57">
  <defs>
    <style>
      .cls-1 {
        stroke: #fff;
        stroke-linecap: round;
        stroke-linejoin: round;
        stroke-width: 8px;
      }

      .cls-1, .cls-2 {
        fill: #fff;
      }

      .cls-3 {
        fill: #ecc316;
      }

      .cls-4 {
        fill: #36a936;
      }

      .cls-5 {
        fill: #364a9a;
      }

      .cls-6 {
        font-family: Bauhaus93, 'Bauhaus 93';
        font-size: 26px;
      }

      .cls-6, .cls-7 {
        fill: #343434;
      }

      .cls-8 {
        fill: #e62c2b;
      }
    </style>
  </defs>
  <path class="cls-8" d="M44.19,86.78v-33.52c7.68,0,11.52-2.93,11.52-8.8,0-5.37-2.93-8.05-8.8-8.05s-8.89,3.68-8.89,11.05v83.51H0V51.4c0-8.24.83-14.99,2.48-20.27,1.65-5.27,4.48-10.19,8.47-14.74,4.49-5.06,10.11-9.05,16.85-11.98C34.55,1.47,41.5,0,48.68,0c12.98,0,23.89,4.37,32.72,13.11,8.83,8.74,13.25,19.57,13.25,32.49s-3.96,22.72-11.89,30.52c-7.24,7.18-18.16,10.77-32.77,10.77l-5.8-.09Z"/>
  <path class="cls-5" d="M170.95,0c18.1,0,33.62,6.59,46.57,19.75,12.95,13.17,19.43,28.93,19.43,47.28s-6.52,34.51-19.57,47.56c-13.05,13.04-28.9,19.57-47.56,19.57s-34.36-6.55-47.46-19.66-19.66-28.93-19.66-47.46,6.6-34.58,19.8-47.56C135.7,6.49,151.85,0,170.95,0ZM169.82,37.63c-7.8,0-14.45,2.87-19.94,8.61-5.49,5.74-8.24,12.67-8.24,20.78s2.76,15.04,8.29,20.78c5.52,5.74,12.15,8.61,19.89,8.61s14.53-2.86,19.99-8.57c5.46-5.71,8.19-12.65,8.19-20.83s-2.73-15.12-8.19-20.83c-5.46-5.71-12.12-8.57-19.99-8.57Z"/>
  <path class="cls-3" d="M252.21,3.18h38.12v78.8c0,6.15.95,10.25,2.86,12.29,1.91,2.04,5.68,3.06,11.31,3.06h1.97v38.47h-10.14c-13.9,0-24.72-4.19-32.49-12.58-7.76-8.39-11.64-20.03-11.64-34.93V3.18Z"/>
  <path class="cls-4" d="M357.15,3.18v130.97h-38.01V3.18h38.01ZM430.08,3.18l-33.7,60.14,33.52,72.48h-42.69l-28.93-73.26L391.04,3.18h39.04Z"/>
  <path class="cls-7" d="M532.59,3.18v82.85c0,14.6-4.35,26.28-13.06,35.01-8.71,8.74-20.3,13.11-34.78,13.11s-25.45-4.24-33.09-12.73c-7.65-8.49-11.47-20.69-11.47-36.6V3.18h38.01v81.54c0,7.8,2.78,11.7,8.33,11.7s8.05-3.9,8.05-11.7V3.18h38.01Z"/>
  <path class="cls-7" d="M597.28,86.78v-33.52c7.68,0,11.52-2.93,11.52-8.8,0-5.37-2.93-8.05-8.8-8.05s-8.89,3.68-8.89,11.05v83.51h-38.01V51.4c0-8.24.83-14.99,2.48-20.27,1.65-5.27,4.48-10.19,8.47-14.74,4.49-5.06,10.11-9.05,16.85-11.98,6.74-2.93,13.7-4.4,20.88-4.4,12.98,0,23.89,4.37,32.72,13.11,8.83,8.74,13.25,19.57,13.25,32.49s-3.96,22.72-11.89,30.52c-7.24,7.18-18.16,10.77-32.77,10.77l-5.8-.09Z"/>
  <rect class="cls-2" x="136.21" y="115.09" width="67.23" height="6.18" transform="translate(288 -51.64) rotate(90)"/>
  <rect class="cls-1" x="149.26" y="37.17" width="41.12" height="59.72" rx="16.34" ry="16.34" transform="translate(339.65 134.06) rotate(180)"/>
  <rect class="cls-5" x="193.88" y="40.91" width="16.15" height="52.24"/>
  <rect class="cls-5" x="207.35" y="75.35" width=".49" height="0"/>
  <rect class="cls-5" x="129.61" y="40.96" width="16.15" height="52.24"/>
  <rect class="cls-5" x="172.91" y="108.04" width="16.15" height="22.94"/>
  <ellipse class="cls-5" cx="169.82" cy="150.69" rx="32.6" ry="6.24"/>
  <text class="cls-6" transform="translate(308.93 178.82)"><tspan x="0" y="0">Ancla y Asciende a la cima</tspan></text>
</svg>