<?xml version="1.0" encoding="UTF-8"?>
<svg id="Capa_1" data-name="Capa 1" xmlns="http://www.w3.org/2000/svg" viewBox="0 0 1089.12 774.75">
  <defs>
    <style>
      .cls-1 {
        fill: #063;
      }

      .cls-2 {
        fill: #008e45;
      }

      .cls-3 {
        stroke: #fff;
        stroke-linejoin: round;
        stroke-width: 8px;
      }

      .cls-3, .cls-4 {
        fill: #fff;
      }

      .cls-3, .cls-5 {
        stroke-linecap: round;
      }

      .cls-6 {
        fill: #bebebf;
      }

      .cls-7 {
        fill: #aaa;
      }

      .cls-8 {
        fill: #929495;
      }

      .cls-9 {
        fill: #ecc316;
      }

      .cls-10 {
        fill: #36a936;
      }

      .cls-11 {
        stroke: #1d1d1b;
      }

      .cls-11, .cls-5 {
        fill: none;
        stroke-miterlimit: 10;
        stroke-width: 5px;
      }

      .cls-12 {
        fill: #4f504f;
      }

      .cls-5 {
        stroke: #008e45;
      }

      .cls-13 {
        fill: #005022;
      }

      .cls-14 {
        fill: #007033;
      }

      .cls-15 {
        fill: #364a9a;
      }

      .cls-16 {
        font-family: Bauhaus93, 'Bauhaus 93';
        font-size: 26px;
      }

      .cls-16, .cls-17 {
        fill: #343434;
      }

      .cls-18 {
        fill: #76797a;
      }

      .cls-19 {
        fill: #e62c2b;
      }

      .cls-20 {
        fill: #dbdcdd;
      }
    </style>
  </defs>
  <circle class="cls-15" cx="49.8" cy="359.58" r="49.8"/>
  <circle class="cls-4" cx="49.8" cy="359.58" r="4.58"/>
  <circle class="cls-15" cx="724.47" cy="724.95" r="49.8"/>
  <circle class="cls-4" cx="724.47" cy="724.95" r="4.58"/>
  <circle class="cls-10" cx="408.03" cy="593.88" r="49.8"/>
  <circle class="cls-4" cx="408.03" cy="593.88" r="4.58"/>
  <circle class="cls-9" cx="1006.34" cy="548.67" r="45.22"/>
  <circle class="cls-11" cx="1006.53" cy="548.48" r="55.65"/>
  <circle class="cls-4" cx="1006.34" cy="548.67" r="4.01"/>
  <circle class="cls-15" cx="998.12" cy="73.5" r="45.22"/>
  <circle class="cls-11" cx="998.31" cy="73.31" r="55.65"/>
  <circle class="cls-4" cx="998.12" cy="73.5" r="4.01"/>
  <circle class="cls-19" cx="758.13" cy="145.15" r="49.8"/>
  <circle class="cls-4" cx="758.13" cy="145.15" r="4.58"/>
  <circle class="cls-10" cx="1017.58" cy="279.22" r="49.8"/>
  <circle class="cls-4" cx="1017.58" cy="279.22" r="4.58"/>
  <polygon class="cls-14" points="656.57 544.54 641.27 543.39 678.23 617.24 695.45 616.09 656.57 544.54"/>
  <polygon class="cls-2" points="626.03 554.69 662.73 629.56 678.23 617.24 641.27 543.39 626.03 554.69"/>
  <polygon class="cls-1" points="628.33 567.51 663.05 637.94 662.73 629.56 626.03 554.69 628.33 567.51"/>
  <polygon class="cls-13" points="695.45 616.09 694.57 624.55 679.42 634.93 663.05 637.94 662.73 629.56 678.23 617.24 695.45 616.09"/>
  <path class="cls-6" d="M681.82,628.3c.19.61-.13.86-.44,1,.06.16.22.31.29.44,1.71,2.08,3.27,4.76,4.63,7.36,7.98,15.28,16,32.87,22.83,49.24,3.22,7.73,6.56,18,10.06,25.08.34.69,1.14,2.53,1.7,1.88l.15.28c-.23.84-.54,1.5-1.05,1.97.02.12.02.24.04.35.14.95,3.26,7.73,3.86,9.05h.08c-.1-.84-.14-1.2-.39-1.98-.36-1.13-3.06-6.65-3.08-7.18,0-.09.56-1.28.67-1.45.07,0,.63,1.28.69,1.46-.16-.87-.5-1.89-.8-2.7-11.21-30.41-24.88-59.01-38.57-87.27-.35.44-.34,2.12-.68,2.46Z"/>
  <path class="cls-12" d="M723.87,726.86c.02-.24-.1-.21-.11-.23-.17-.01-.41.12-.56,0-.36-.27-3.64-8.85-4.36-9.89-.05-.45-.24-.29-.44-.3-.27-.03-.51.28-.72.03-9.33-20.42-17.83-41.54-27.19-61.92-4-8.17-7.92-16.56-11.61-24.96.22-.04.37.09.61.05s.59-.05.79-.09c.21-.05.97-.19,1.09-.25.32-.15.63-.4.44-1-.34.34-2.77,1.15-3.2,1.1-.33-.04-1.3-.94-1.69-1.11l40.06,88.39c.84,1.17,5.59,10.08,6.13,10.27.06.02.69-.06.75-.09Z"/>
  <path class="cls-7" d="M676.92,628.29c.4.16,1.36,1.06,1.69,1.11.44.06,2.87-.75,3.2-1.1s.33-2.02.68-2.46c-.07-.95-5.72,2.02-5.57,2.45Z"/>
  <path class="cls-8" d="M719.38,716.58c1.52,3.09,2.79,7.12,4.38,10.06,0,.01.12-.01.11.23.47-.25.17-1.18.11-1.8-.09.03-.07-.07-.09-.11-.61-1.32-3.72-8.1-3.86-9.05-.21.04-.55.61-.64.67Z"/>
  <path class="cls-20" d="M723.58,722.97c-.45-2.18-.99-5.13-1.72-7.17-.07-.19-.62-1.45-.69-1.46-.11.17-.68,1.36-.67,1.45.02.54,2.72,6.06,3.08,7.18Z"/>
  <path class="cls-4" d="M723.98,725.07s0-.08-.01-.12h-.08c.02.05,0,.15.09.12Z"/>
  <path class="cls-20" d="M681.67,629.75c1.16,2.07,2.45,5,3.49,7.25,9.86,21.33,19.14,43.22,28.37,65.11l6.38,13.45s.06,0,.08,0c.52-.47.82-1.13,1.05-1.97l-.15-.28c-.56.66-1.36-1.19-1.7-1.88-3.5-7.09-6.84-17.35-10.06-25.08-6.83-16.37-14.84-33.96-22.83-49.24-1.35-2.59-2.92-5.27-4.63-7.36Z"/>
  <path class="cls-8" d="M680.28,629.55c5.49,12.24,11.29,24.22,16.76,36.47,7.43,16.62,14.39,33.67,22,50.12.07.03.73-.48.86-.58l-6.38-13.45c-9.22-21.89-18.5-43.78-28.37-65.11-1.04-2.25-2.34-5.19-3.49-7.25-.08-.14-.23-.28-.29-.44-.12.06-.88.2-1.09.25Z"/>
  <path class="cls-18" d="M679.49,629.65l38.92,86.81c.19.02.39-.15.44.3.1-.18.52-.17.54-.18.09-.07.44-.63.64-.67-.02-.12-.03-.24-.04-.35-.02.02-.06,0-.08,0-.12.1-.79.61-.86.58-7.62-16.45-14.58-33.5-22-50.12-5.47-12.25-11.27-24.24-16.76-36.47-.2.04-.56.05-.79.09Z"/>
  <path class="cls-12" d="M718.41,716.46l-38.92-86.81c-.23.04-.39-.08-.61-.05,3.69,8.39,7.61,16.78,11.61,24.96,9.36,20.38,17.86,41.51,27.19,61.92.21.26.45-.05.72-.03Z"/>
  <path class="cls-18" d="M718.84,716.76c.72,1.03,4,9.62,4.36,9.89.15.12.39-.02.56,0-1.59-2.95-2.86-6.97-4.38-10.06-.02.02-.44,0-.54.18Z"/>
  <polygon class="cls-14" points="1058.59 403.16 1073.89 402.01 1036.92 475.86 1019.71 474.71 1058.59 403.16"/>
  <polygon class="cls-2" points="1089.12 413.31 1052.42 488.18 1036.92 475.86 1073.89 402.01 1089.12 413.31"/>
  <polygon class="cls-1" points="1086.82 426.13 1052.1 496.57 1052.42 488.18 1089.12 413.31 1086.82 426.13"/>
  <polygon class="cls-13" points="1019.71 474.71 1020.58 483.17 1035.74 493.55 1052.1 496.57 1052.42 488.18 1036.92 475.86 1019.71 474.71"/>
  <path class="cls-6" d="M1034.01,488.33c-.12.42.23.56.57.64-.04.11-.18.22-.24.32-1.49,1.53-2.76,3.45-3.82,5.29-6.28,10.86-12.33,23.26-17.3,34.76-2.35,5.43-4.51,12.56-7.22,17.58-.26.49-.86,1.79-1.51,1.39l-.12.2c.34.54.73.96,1.31,1.24.06.16.03.22,0,.24,0,0-.17.09-1.35-.96h0s-.06-.03-.1-.07c-.24-.22,0-.68.05-.77.24-.49,12.23-26.12,28.75-61.45.41.27.61,1.39.98,1.59Z"/>
  <path class="cls-12" d="M1006.98,550.46c0-.31.21-.21.41-.24.27-.04.55.15.73-.04,7.04-14.4,13.15-29.21,20.22-43.59,3.09-5.79,6.06-11.71,8.81-17.62-.23,0-.37.09-.61.08-.24,0-.61.01-.82,0-.22-.01-1.01-.05-1.14-.08-.34-.07-.69-.22-.57-.64.38.2,2.95.55,3.39.48.33-.05,1.21-.73,1.59-.87l-30.14,62.32c-.63.07-1.25.13-1.88.2Z"/>
  <path class="cls-7" d="M1038.99,487.94c-.39.14-1.26.82-1.59.87-.44.07-3.01-.28-3.39-.48s-.58-1.33-.98-1.59c-.05-.64,6.06.9,5.96,1.2Z"/>
  <path class="cls-4" d="M1002.75,556.42s0-.05,0-.08h.08s0,.09-.08.08Z"/>
  <path class="cls-20" d="M1034.34,489.29c-.93,1.47-1.89,3.54-2.68,5.13-7.47,15.06-14.28,30.44-21.03,45.82l-4.88,9.51s-.06.01-.08,0c-.58-.27-.97-.69-1.31-1.24l.12-.2c.65.39,1.24-.9,1.51-1.39,2.71-5.02,4.87-12.15,7.22-17.58,4.98-11.5,11.02-23.9,17.3-34.76,1.07-1.84,2.33-3.76,3.82-5.29Z"/>
  <path class="cls-8" d="M1035.73,489.05c-4.12,8.62-8.58,17.1-12.67,25.73-5.56,11.71-10.59,23.67-16.36,35.28-.07.03-.8-.26-.94-.32l4.88-9.51c6.75-15.38,13.56-30.76,21.03-45.82.79-1.59,1.75-3.66,2.68-5.13.06-.1.2-.21.24-.32.13.03.92.07,1.14.08Z"/>
  <path class="cls-18" d="M1036.54,489.05l-29.16,61.17c-.19.03-.42-.07-.41.24-.13-.11-.54-.07-.57-.08-.1-.04-.52-.39-.74-.4,0-.08,0-.16,0-.24.02.01.06,0,.08,0,.14.06.87.35.94.32,5.77-11.61,10.81-23.57,16.36-35.28,4.1-8.63,8.56-17.11,12.67-25.73.21.01.57,0,.82,0Z"/>
  <path class="cls-12" d="M1007.39,550.22l29.16-61.17c.24,0,.38-.09.61-.08-2.75,5.91-5.72,11.83-8.81,17.62-7.08,14.38-13.19,29.19-20.22,43.59-.19.19-.47,0-.73.04Z"/>
  <circle class="cls-9" cx="364.07" cy="95.35" r="49.8"/>
  <circle class="cls-4" cx="364.07" cy="95.35" r="4.58"/>
  <circle class="cls-19" cx="120.48" cy="677.81" r="45.22"/>
  <circle class="cls-11" cx="120.67" cy="677.62" r="55.65"/>
  <circle class="cls-4" cx="120.48" cy="677.81" r="4.01"/>
  <circle class="cls-10" cx="60.57" cy="58.33" r="45.22"/>
  <circle class="cls-11" cx="60.76" cy="58.15" r="55.65"/>
  <circle class="cls-4" cx="60.57" cy="58.33" r="4.01"/>
  <path class="cls-5" d="M1062.17,414.73c-17.27,13.57-44.67,33.72-81.18,54.8-43.14,24.91-116.17,66.17-219.94,81.85-39.91,6.03-75.31,6.91-103.71,5.94"/>
  <path class="cls-19" d="M273.48,378.55v-33.52c7.68,0,11.52-2.93,11.52-8.8,0-5.37-2.93-8.05-8.8-8.05s-8.89,3.68-8.89,11.05v83.51h-38.01v-79.58c0-8.24.83-14.99,2.48-20.27,1.65-5.27,4.48-10.19,8.47-14.74,4.49-5.06,10.11-9.05,16.85-11.98,6.74-2.93,13.7-4.4,20.88-4.4,12.98,0,23.89,4.37,32.72,13.11,8.83,8.74,13.25,19.57,13.25,32.49s-3.96,22.72-11.89,30.52c-7.24,7.18-18.16,10.77-32.77,10.77l-5.8-.09Z"/>
  <path class="cls-15" d="M400.24,291.77c18.1,0,33.62,6.59,46.57,19.75,12.95,13.17,19.43,28.93,19.43,47.28s-6.52,34.51-19.57,47.56c-13.05,13.04-28.9,19.57-47.56,19.57s-34.36-6.55-47.46-19.66-19.66-28.93-19.66-47.46,6.6-34.58,19.8-47.56c13.2-12.98,29.35-19.47,48.45-19.47ZM399.12,329.4c-7.8,0-14.45,2.87-19.94,8.61-5.49,5.74-8.24,12.67-8.24,20.78s2.76,15.04,8.29,20.78c5.52,5.74,12.15,8.61,19.89,8.61s14.53-2.86,19.99-8.57c5.46-5.71,8.19-12.65,8.19-20.83s-2.73-15.12-8.19-20.83c-5.46-5.71-12.12-8.57-19.99-8.57Z"/>
  <path class="cls-9" d="M481.5,294.95h38.12v78.8c0,6.15.95,10.25,2.86,12.29,1.91,2.04,5.68,3.06,11.31,3.06h1.97v38.47h-10.14c-13.9,0-24.72-4.19-32.49-12.58-7.76-8.39-11.64-20.03-11.64-34.93v-85.11Z"/>
  <path class="cls-10" d="M586.45,294.95v130.97h-38.01v-130.97h38.01ZM659.37,294.95l-33.7,60.14,33.52,72.48h-42.69l-28.93-73.26,32.77-59.36h39.04Z"/>
  <path class="cls-17" d="M761.89,294.95v82.85c0,14.6-4.35,26.28-13.06,35.01-8.71,8.74-20.3,13.11-34.78,13.11s-25.45-4.24-33.09-12.73c-7.65-8.49-11.47-20.69-11.47-36.6v-81.63h38.01v81.54c0,7.8,2.78,11.7,8.33,11.7s8.05-3.9,8.05-11.7v-81.54h38.01Z"/>
  <path class="cls-17" d="M826.58,378.55v-33.52c7.68,0,11.52-2.93,11.52-8.8,0-5.37-2.93-8.05-8.8-8.05s-8.89,3.68-8.89,11.05v83.51h-38.01v-79.58c0-8.24.83-14.99,2.48-20.27,1.65-5.27,4.48-10.19,8.47-14.74,4.49-5.06,10.11-9.05,16.85-11.98,6.74-2.93,13.7-4.4,20.88-4.4,12.98,0,23.89,4.37,32.72,13.11,8.83,8.74,13.25,19.57,13.25,32.49s-3.96,22.72-11.89,30.52c-7.24,7.18-18.16,10.77-32.77,10.77l-5.8-.09Z"/>
  <rect class="cls-4" x="365.5" y="406.86" width="67.23" height="6.18" transform="translate(809.06 10.83) rotate(90)"/>
  <rect class="cls-3" x="378.56" y="328.94" width="41.12" height="59.72" rx="16.34" ry="16.34" transform="translate(798.23 717.59) rotate(180)"/>
  <rect class="cls-15" x="423.18" y="332.68" width="16.15" height="52.24"/>
  <rect class="cls-15" x="436.64" y="367.11" width=".49" height="0"/>
  <rect class="cls-15" x="358.9" y="332.73" width="16.15" height="52.24"/>
  <rect class="cls-15" x="402.21" y="399.8" width="16.15" height="22.94"/>
  <ellipse class="cls-15" cx="399.12" cy="442.46" rx="32.6" ry="6.24"/>
  <text class="cls-16" transform="translate(538.22 470.59)"><tspan x="0" y="0">Ancla y Asciende a la cima</tspan></text>
</svg>